<svg width="25" height="25" viewBox="0 0 25 25" fill="none" xmlns="http://www.w3.org/2000/svg">
<g clip-path="url(#clip0_40_198)">
<path d="M21.3456 24.7362H16.353V22.7392H21.3456C21.6104 22.7392 21.8644 22.634 22.0516 22.4467C22.2389 22.2595 22.3441 22.0055 22.3441 21.7407V16.7482H24.3411V21.7407C24.3411 22.5352 24.0255 23.2971 23.4637 23.8588C22.9019 24.4206 22.14 24.7362 21.3456 24.7362Z" fill="#333446"/>
<path d="M2.37397 8.75979H0.376953V3.76725C0.376953 2.97279 0.692552 2.21087 1.25432 1.6491C1.81609 1.08733 2.57801 0.771729 3.37248 0.771729L8.36501 0.771729V2.76874H3.37248C3.10766 2.76874 2.85368 2.87394 2.66642 3.0612C2.47917 3.24846 2.37397 3.50243 2.37397 3.76725V8.75979Z" fill="#333446"/>
<path d="M8.36501 24.7362H3.37248C2.57801 24.7362 1.81609 24.4206 1.25432 23.8588C0.692552 23.2971 0.376953 22.5352 0.376953 21.7407L0.376953 16.7482H2.37397V21.7407C2.37397 22.0055 2.47917 22.2595 2.66642 22.4467C2.85368 22.634 3.10766 22.7392 3.37248 22.7392H8.36501V24.7362Z" fill="#333446"/>
<path d="M24.3411 8.75979H22.3441V3.76725C22.3441 3.50243 22.2389 3.24846 22.0516 3.0612C21.8644 2.87394 21.6104 2.76874 21.3456 2.76874H16.353V0.771729H21.3456C22.14 0.771729 22.9019 1.08733 23.4637 1.6491C24.0255 2.21087 24.3411 2.97279 24.3411 3.76725V8.75979Z" fill="#333446"/>
</g>
<defs>
<clipPath id="clip0_40_198">
<rect width="23.9642" height="23.9642" fill="white" transform="translate(0.376953 0.771729)"/>
</clipPath>
</defs>
</svg>
