<svg width="25" height="25" viewBox="0 0 25 25" fill="none" xmlns="http://www.w3.org/2000/svg">
<g clip-path="url(#clip0_97_653)">
<path d="M24.1335 22.7437L17.8752 16.4844C19.499 14.4976 20.297 11.9626 20.1043 9.40391C19.9116 6.84518 18.7429 4.45837 16.8399 2.73711C14.9369 1.01585 12.4451 0.0918108 9.87991 0.156097C7.31474 0.220383 4.87238 1.26808 3.05796 3.0825C1.24354 4.89692 0.195847 7.33927 0.131561 9.90445C0.0672747 12.4696 0.991313 14.9614 2.71257 16.8644C4.43383 18.7675 6.82064 19.9362 9.37937 20.1289C11.9381 20.3216 14.473 19.5235 16.4599 17.8997L22.7192 24.158L24.1335 22.7437Z" fill="#333446"/>
</g>
<defs>
<clipPath id="clip0_97_653">
<rect width="24.005" height="24.005" fill="white" transform="translate(0.128418 0.152954)"/>
</clipPath>
</defs>
</svg>
